<?xml version="1.0" encoding="utf-8"?>
<!-- Generator: Adobe Illustrator 25.2.3, SVG Export Plug-In . SVG Version: 6.00 Build 0)  -->
<svg version="1.1" xmlns="http://www.w3.org/2000/svg" xmlns:xlink="http://www.w3.org/1999/xlink" x="0px" y="0px"
	 viewBox="0 0 100 100" style="enable-background:new 0 0 100 100;" xml:space="preserve">
<style type="text/css">
	.st0{fill:#F39200;}
	.st1{fill:#1D1D1B;}
	.st2{fill:#FFFFFF;}
	.st3{fill:none;stroke:#F39200;stroke-width:3;stroke-miterlimit:10;}
	.st4{fill:none;stroke:#F39200;stroke-width:3;stroke-linecap:round;stroke-linejoin:round;stroke-miterlimit:10;}
	.st5{display:none;}
	.st6{display:inline;}
	.st7{fill:none;stroke:#FFFFFF;stroke-width:2;stroke-linecap:round;stroke-linejoin:round;stroke-miterlimit:10;}
</style>
<g id="Capa_1">
	<g>
		<circle class="st0" cx="50" cy="50" r="40.21"/>
		<g>
			<path class="st1" d="M67.17,67.94H32.83c-3.36,0-5.78-3.31-4.67-6.48c1.87-5.34,5.64-9.78,10.5-12.52
				c2.3,3.86,6.52,6.45,11.34,6.45s9.04-2.59,11.34-6.45c4.86,2.74,8.63,7.18,10.5,12.52C72.94,64.64,70.53,67.94,67.17,67.94z"/>
			<circle class="st1" cx="50" cy="42.2" r="10.15"/>
		</g>
		<g>
			<path class="st2" d="M45.79,37.4v1.73c0,1.37-1.73,1.97-2.58,0.89l-1.62-2.06c-0.27-0.35-0.69-0.55-1.14-0.55H28.6
				c-1.06,0-1.93-0.86-1.93-1.93v-9.8c0-1.06,0.86-1.93,1.93-1.93h15.26c1.06,0,1.93,0.86,1.93,1.93V37.4z"/>
			<circle class="st1" cx="31.31" cy="30.49" r="1.52"/>
			<circle class="st1" cx="36.43" cy="30.49" r="1.52"/>
			<circle class="st1" cx="41.55" cy="30.49" r="1.52"/>
		</g>
	</g>
</g>
<g id="Capa_2">
	<g>
		<path class="st4" d="M24.11,11.81c-6.05,4.11-11.07,9.62-14.6,16.07"/>
		<g>
			<path class="st4" d="M50,3.86c-9.6,0-18.51,2.93-25.89,7.95"/>
			<path class="st4" d="M77.47,12.93c-3.12-2.31-6.54-4.24-10.19-5.71"/>
			<path class="st4" d="M81.31,83.88C90.43,75.46,96.14,63.4,96.14,50"/>
			<path class="st4" d="M3.86,50c0,8.51,2.31,16.47,6.33,23.32"/>
			<path class="st4" d="M33.53,93.09C33.53,93.1,33.53,93.1,33.53,93.09c5.12,1.96,10.67,3.05,16.47,3.05"/>
			<path class="st4" d="M10.19,73.32c5.27,8.98,13.49,16.02,23.34,19.78c0,0,0,0,0-0.01"/>
		</g>
	</g>
</g>
<g id="Capa_3" class="st5">
	<g class="st6">
		<path class="st7" d="M49.58,14.54c-5.62,0.07-11.18,1.48-16.17,4.12"/>
		<g>
			<path class="st7" d="M69.55,20.41c-6.15-4.07-13.11-5.96-19.97-5.87"/>
			<path class="st7" d="M83.32,37.86c-1.02-2.8-2.4-5.49-4.12-7.98"/>
			<path class="st7" d="M55.72,84.99c9.42-1.54,18.19-6.85,23.87-15.44"/>
			<path class="st7" d="M20.41,30.45c-3.6,5.46-5.5,11.54-5.82,17.63"/>
			<path class="st7" d="M21.18,70.66C21.18,70.66,21.18,70.66,21.18,70.66c2.45,3.43,5.55,6.47,9.27,8.93"/>
			<path class="st7" d="M14.59,48.09c-0.42,7.99,1.87,15.99,6.58,22.57c0,0,0,0,0,0"/>
		</g>
	</g>
</g>
</svg>
