<?xml version="1.0" encoding="utf-8"?>
<!-- Generator: Adobe Illustrator 25.2.3, SVG Export Plug-In . SVG Version: 6.00 Build 0)  -->
<svg version="1.1" xmlns="http://www.w3.org/2000/svg" xmlns:xlink="http://www.w3.org/1999/xlink" x="0px" y="0px"
	 viewBox="0 0 100 100" style="enable-background:new 0 0 100 100;" xml:space="preserve">
<style type="text/css">
	.st0{fill:#F39200;}
	.st1{fill:#1D1D1B;}
	.st2{fill:#FFFFFF;}
	.st3{fill:none;stroke:#F39200;stroke-width:3;stroke-miterlimit:10;}
	.st4{fill:none;stroke:#F39200;stroke-width:3;stroke-linecap:round;stroke-linejoin:round;stroke-miterlimit:10;}
	.st5{display:none;}
	.st6{display:inline;}
	.st7{fill:none;stroke:#FFFFFF;stroke-width:2;stroke-linecap:round;stroke-linejoin:round;stroke-miterlimit:10;}
</style>
<g id="Capa_1">
	<g>
		<circle class="st0" cx="50" cy="50" r="40.21"/>
		<g>
			<g>
				<path class="st2" d="M24.55,38.82c-0.49-0.45-1.25-0.43-1.7,0.06l-1.44,1.55c-0.22,0.23-0.33,0.55-0.32,0.87
					c0.01,0.32,0.15,0.62,0.38,0.84l4.09,3.81h-8.89c-0.67,0-1.21,0.54-1.21,1.21v2.41c0,0.67,0.54,1.21,1.21,1.21h8.9l-4.1,3.81
					c-0.23,0.22-0.37,0.52-0.38,0.84c-0.01,0.32,0.1,0.63,0.32,0.87l1.44,1.55c0.24,0.26,0.56,0.38,0.88,0.38
					c0.29,0,0.59-0.11,0.82-0.32l9.31-8.65c0.25-0.23,0.38-0.55,0.38-0.88c0-0.33-0.14-0.65-0.38-0.88L24.55,38.82z"/>
				<path class="st2" d="M83.33,45.94h-8.9l4.1-3.81c0.23-0.22,0.37-0.52,0.38-0.84c0.01-0.32-0.1-0.63-0.32-0.87l-1.44-1.55
					c-0.46-0.49-1.22-0.51-1.7-0.06l-9.31,8.65c-0.25,0.23-0.38,0.55-0.38,0.88c0,0.33,0.14,0.65,0.38,0.88l9.31,8.65
					c0.23,0.22,0.53,0.32,0.82,0.32c0.32,0,0.64-0.13,0.88-0.38l1.44-1.55c0.22-0.23,0.33-0.55,0.32-0.87
					c-0.01-0.32-0.15-0.62-0.38-0.84l-4.09-3.81h8.89c0.67,0,1.21-0.54,1.21-1.21v-2.41C84.54,46.48,84,45.94,83.33,45.94z"/>
			</g>
			<g>
				<path class="st1" d="M55.47,70.48H44.53c-4.32,0-7.84-3.52-7.84-7.84V37.36c0-4.32,3.52-7.84,7.84-7.84h10.93
					c4.32,0,7.84,3.52,7.84,7.84v25.27C63.31,66.96,59.79,70.48,55.47,70.48z M44.53,33.19c-2.3,0-4.17,1.87-4.17,4.17v25.27
					c0,2.3,1.87,4.17,4.17,4.17h10.93c2.3,0,4.17-1.87,4.17-4.17V37.36c0-2.3-1.87-4.17-4.17-4.17H44.53z"/>
			</g>
			<circle class="st1" cx="50" cy="34.03" r="3.34"/>
		</g>
	</g>
</g>
<g id="Capa_2">
	<g>
		<path class="st4" d="M24.11,11.81c-6.05,4.11-11.07,9.62-14.6,16.07"/>
		<g>
			<path class="st4" d="M50,3.86c-9.6,0-18.51,2.93-25.89,7.95"/>
			<path class="st4" d="M77.47,12.93c-3.12-2.31-6.54-4.24-10.19-5.71"/>
			<path class="st4" d="M81.31,83.88C90.43,75.46,96.14,63.4,96.14,50"/>
			<path class="st4" d="M3.86,50c0,8.51,2.31,16.47,6.33,23.32"/>
			<path class="st4" d="M33.53,93.09C33.53,93.1,33.53,93.1,33.53,93.09c5.12,1.96,10.67,3.05,16.47,3.05"/>
			<path class="st4" d="M10.19,73.32c5.27,8.98,13.49,16.02,23.34,19.78c0,0,0,0,0-0.01"/>
		</g>
	</g>
</g>
<g id="Capa_3" class="st5">
	<g class="st6">
		<path class="st7" d="M42.12,15.82c-5.49,1.21-10.64,3.72-14.99,7.32"/>
		<g>
			<path class="st7" d="M62.87,17.51c-6.85-2.73-14.05-3.17-20.75-1.69"/>
			<path class="st7" d="M79.91,31.79c-1.57-2.54-3.47-4.88-5.65-6.98"/>
			<path class="st7" d="M62.48,83.55c8.91-3.43,16.42-10.41,20.22-19.98"/>
			<path class="st7" d="M25.74,76.54C25.74,76.54,25.74,76.55,25.74,76.54c3.1,2.86,6.75,5.21,10.9,6.86"/>
			<path class="st7" d="M14.7,55.79c1.21,7.91,5.08,15.27,11.04,20.76c0,0,0,0,0,0"/>
		</g>
	</g>
</g>
</svg>
