<?xml version="1.0" encoding="utf-8"?>
<!-- Generator: Adobe Illustrator 25.2.3, SVG Export Plug-In . SVG Version: 6.00 Build 0)  -->
<svg version="1.1" xmlns="http://www.w3.org/2000/svg" xmlns:xlink="http://www.w3.org/1999/xlink" x="0px" y="0px"
	 viewBox="0 0 100 100" style="enable-background:new 0 0 100 100;" xml:space="preserve">
<style type="text/css">
	.st0{fill:#F39200;}
	.st1{fill:#1D1D1B;}
	.st2{fill:#FFFFFF;}
	.st3{fill:none;stroke:#F39200;stroke-width:3;stroke-miterlimit:10;}
	.st4{fill:none;stroke:#F39200;stroke-width:3;stroke-linecap:round;stroke-linejoin:round;stroke-miterlimit:10;}
	.st5{display:none;}
	.st6{display:inline;}
	.st7{fill:none;stroke:#FFFFFF;stroke-width:2;stroke-linecap:round;stroke-linejoin:round;stroke-miterlimit:10;}
</style>
<g id="Capa_1">
	<g>
		<circle class="st0" cx="50" cy="50" r="40.21"/>
		<path class="st1" d="M74.01,65.21v4.34c0,3.45-4.36,4.95-6.49,2.24l-4.06-5.19c-0.69-0.88-1.74-1.39-2.86-1.39H30.83
			c-2.67,0-4.84-2.17-4.84-4.84V35.74c0-2.67,2.17-4.84,4.84-4.84h38.35c2.67,0,4.84,2.17,4.84,4.84V65.21z"/>
		<circle class="st2" cx="37.63" cy="47.85" r="3.83"/>
		<circle class="st2" cx="50.5" cy="47.85" r="3.83"/>
		<circle class="st2" cx="63.36" cy="47.85" r="3.83"/>
	</g>
</g>
<g id="Capa_2">
	<g>
		<path class="st4" d="M24.11,11.81c-6.05,4.11-11.07,9.62-14.6,16.07"/>
		<g>
			<path class="st4" d="M50,3.86c-9.6,0-18.51,2.93-25.89,7.95"/>
			<path class="st4" d="M77.47,12.93c-3.12-2.31-6.54-4.24-10.19-5.71"/>
			<path class="st4" d="M81.31,83.88C90.43,75.46,96.14,63.4,96.14,50"/>
			<path class="st4" d="M3.86,50c0,8.51,2.31,16.47,6.33,23.32"/>
			<path class="st4" d="M33.53,93.09C33.53,93.1,33.53,93.1,33.53,93.09c5.12,1.96,10.67,3.05,16.47,3.05"/>
			<path class="st4" d="M10.19,73.32c5.27,8.98,13.49,16.02,23.34,19.78c0,0,0,0,0-0.01"/>
		</g>
	</g>
</g>
<g id="Capa_3" class="st5">
	<g class="st6">
		<path class="st7" d="M59.96,15.96c-5.4-1.57-11.12-1.85-16.67-0.79"/>
		<g>
			<path class="st7" d="M77.34,27.42c-4.7-5.69-10.8-9.53-17.38-11.45"/>
			<path class="st7" d="M85.41,48.13c-0.15-2.98-0.69-5.95-1.6-8.84"/>
			<path class="st7" d="M45.25,85.14c9.46,1.28,19.4-1.24,27.34-7.8"/>
			<path class="st7" d="M27.42,22.66c-5.04,4.17-8.63,9.43-10.72,15.16"/>
			<path class="st7" d="M16.4,61.33C16.4,61.33,16.4,61.33,16.4,61.33c1.34,3.99,3.42,7.81,6.26,11.25"/>
			<path class="st7" d="M16.7,37.82c-2.74,7.52-2.89,15.83-0.3,23.51c0,0,0,0,0,0"/>
		</g>
	</g>
</g>
</svg>
