<?xml version="1.0" encoding="utf-8"?>
<!-- Generator: Adobe Illustrator 25.2.3, SVG Export Plug-In . SVG Version: 6.00 Build 0)  -->
<svg version="1.1" xmlns="http://www.w3.org/2000/svg" xmlns:xlink="http://www.w3.org/1999/xlink" x="0px" y="0px"
	 viewBox="0 0 100 100" style="enable-background:new 0 0 100 100;" xml:space="preserve">
<style type="text/css">
	.st0{fill:#F39200;}
	.st1{fill:#1D1D1B;}
	.st2{fill:#FFFFFF;}
	.st3{fill:none;stroke:#F39200;stroke-width:3;stroke-miterlimit:10;}
	.st4{fill:none;stroke:#F39200;stroke-width:3;stroke-linecap:round;stroke-linejoin:round;stroke-miterlimit:10;}
	.st5{display:none;}
	.st6{display:inline;}
	.st7{fill:none;stroke:#FFFFFF;stroke-width:2;stroke-linecap:round;stroke-linejoin:round;stroke-miterlimit:10;}
</style>
<g id="Capa_1">
	<g>
		<circle class="st0" cx="50" cy="50" r="40.21"/>
		<g>
			<g>
				<path class="st1" d="M55.36,40.82l1.94-1.21c0.31-0.2,0.45-0.58,0.34-0.93l-0.75-2.32c-0.11-0.35-0.45-0.58-0.82-0.55
					l-2.26,0.16c-0.27,0.02-0.54-0.1-0.7-0.33l-1.11-1.5c-0.17-0.22-0.2-0.52-0.1-0.78l0.86-2.11c0.14-0.34,0.03-0.74-0.27-0.95
					l-1.97-1.43c-0.3-0.22-0.71-0.2-0.99,0.04l-1.73,1.46c-0.21,0.18-0.5,0.23-0.76,0.15l-1.78-0.56c-0.27-0.08-0.47-0.3-0.54-0.57
					l-0.55-2.21c-0.09-0.36-0.41-0.61-0.78-0.61h-2.44c-0.37,0-0.69,0.25-0.78,0.61l-0.54,2.2c-0.07,0.27-0.27,0.48-0.53,0.57
					l-1.77,0.59c-0.27,0.09-0.56,0.03-0.77-0.15l-1.74-1.47c-0.28-0.24-0.69-0.25-0.99-0.04l-1.97,1.43
					c-0.3,0.22-0.41,0.61-0.27,0.95l0.85,2.1c0.1,0.26,0.07,0.55-0.09,0.77l-1.09,1.52c-0.16,0.23-0.43,0.35-0.71,0.33l-2.28-0.16
					c-0.37-0.03-0.71,0.2-0.82,0.55l-0.75,2.32c-0.11,0.35,0.03,0.74,0.34,0.93l1.92,1.2c0.23,0.15,0.38,0.4,0.38,0.68l0.01,1.87
					c0,0.28-0.14,0.54-0.38,0.69l-1.94,1.21c-0.31,0.2-0.45,0.58-0.34,0.93l0.75,2.32c0.11,0.35,0.45,0.58,0.82,0.55l2.26-0.16
					c0.27-0.02,0.54,0.1,0.7,0.32l1.11,1.5c0.17,0.23,0.2,0.52,0.1,0.78l-0.86,2.11c-0.14,0.34-0.03,0.74,0.27,0.95L33.81,56
					c0.3,0.22,0.71,0.2,0.99-0.04l1.73-1.46c0.21-0.18,0.5-0.23,0.76-0.15l1.78,0.56c0.27,0.08,0.47,0.3,0.54,0.57l0.55,2.21
					c0.09,0.36,0.41,0.61,0.78,0.61h2.44c0.37,0,0.69-0.25,0.78-0.61l0.54-2.2c0.07-0.27,0.26-0.48,0.53-0.57L47,54.35
					c0.27-0.09,0.56-0.03,0.77,0.15l1.74,1.47c0.28,0.24,0.69,0.25,0.99,0.04l1.97-1.43c0.3-0.22,0.41-0.61,0.27-0.95l-0.85-2.1
					c-0.1-0.26-0.07-0.55,0.09-0.77l1.09-1.52c0.16-0.23,0.43-0.35,0.71-0.33l2.27,0.16c0.37,0.03,0.71-0.2,0.82-0.55l0.75-2.32
					c0.11-0.35-0.03-0.74-0.34-0.93l-1.92-1.2c-0.23-0.15-0.38-0.4-0.38-0.68l-0.01-1.87C54.98,41.23,55.12,40.97,55.36,40.82z
					 M43.71,51.47c-6.27,1.03-11.62-4.32-10.59-10.59c0.62-3.8,3.69-6.86,7.49-7.49c6.27-1.03,11.62,4.32,10.59,10.59
					C50.57,47.79,47.51,50.85,43.71,51.47z"/>
				<g>
					<path class="st1" d="M71.05,40.82l1.94-1.21c0.31-0.2,0.45-0.58,0.34-0.93l-0.75-2.32c-0.11-0.35-0.45-0.58-0.82-0.55
						l-2.26,0.16c-0.27,0.02-0.54-0.1-0.7-0.33l-1.11-1.5c-0.17-0.22-0.2-0.52-0.1-0.78l0.86-2.11c0.14-0.34,0.03-0.74-0.27-0.95
						l-1.97-1.43c-0.3-0.22-0.71-0.2-0.99,0.04l-1.73,1.46c-0.21,0.18-0.5,0.23-0.76,0.15l-1.78-0.56c-0.27-0.08-0.47-0.3-0.54-0.57
						l-0.55-2.21c-0.09-0.36-0.41-0.61-0.78-0.61h-2.48c-0.35,0-0.65,0.22-0.76,0.55l-2.14,6.44l0.4,0.54
						c1.67-0.76,3.6-1.04,5.63-0.63c3.87,0.79,6.86,4.09,7.26,8.02c0.56,5.49-3.74,10.12-9.12,10.12c-1.35,0-2.62-0.3-3.77-0.82
						l-0.39,0.55l2.14,6.43c0.11,0.33,0.42,0.55,0.76,0.55h2.48c0.37,0,0.69-0.25,0.78-0.61l0.54-2.2c0.07-0.27,0.26-0.48,0.53-0.57
						l1.77-0.59c0.27-0.09,0.56-0.03,0.77,0.15l1.74,1.47c0.28,0.24,0.69,0.25,0.99,0.04l1.97-1.43c0.3-0.22,0.41-0.61,0.27-0.95
						l-0.85-2.1c-0.1-0.26-0.07-0.55,0.09-0.77l1.09-1.52c0.16-0.23,0.43-0.35,0.71-0.33l2.27,0.16c0.37,0.03,0.71-0.2,0.82-0.55
						l0.75-2.32c0.11-0.35-0.03-0.74-0.34-0.93l-1.92-1.2c-0.23-0.15-0.38-0.4-0.38-0.68l-0.01-1.87
						C70.67,41.23,70.81,40.97,71.05,40.82z"/>
				</g>
			</g>
			<g>
				<path class="st2" d="M30,63.37h3.29v4.73c0,0.37,0.04,0.63,0.11,0.77c0.08,0.14,0.21,0.22,0.41,0.22c0.37,0,0.55-0.33,0.55-0.99
					v-4.73h3.29v4.73c0,0.37,0.04,0.63,0.12,0.77c0.08,0.14,0.22,0.22,0.42,0.22c0.36,0,0.55-0.33,0.55-0.99v-4.73h3.29v5.41
					c0,0.99-0.33,1.82-0.99,2.51c-0.66,0.69-1.47,1.03-2.41,1.03c-0.97,0-1.85-0.41-2.62-1.23c-0.86,0.82-1.72,1.23-2.59,1.23
					c-1.1,0-1.98-0.4-2.64-1.2C30.26,70.5,30,69.6,30,68.41V63.37z"/>
				<path class="st2" d="M43.98,63.37h3.29v4.73c0,0.37,0.04,0.63,0.11,0.77c0.08,0.14,0.21,0.22,0.41,0.22
					c0.37,0,0.55-0.33,0.55-0.99v-4.73h3.29v4.73c0,0.37,0.04,0.63,0.12,0.77c0.08,0.14,0.22,0.22,0.42,0.22
					c0.36,0,0.55-0.33,0.55-0.99v-4.73h3.29v5.41c0,0.99-0.33,1.82-0.99,2.51c-0.66,0.69-1.47,1.03-2.41,1.03
					c-0.97,0-1.85-0.41-2.62-1.23c-0.86,0.82-1.72,1.23-2.59,1.23c-1.1,0-1.98-0.4-2.64-1.2c-0.52-0.63-0.78-1.54-0.78-2.72V63.37z"
					/>
				<path class="st2" d="M57.95,63.37h3.29v4.73c0,0.37,0.04,0.63,0.11,0.77c0.08,0.14,0.21,0.22,0.41,0.22
					c0.37,0,0.55-0.33,0.55-0.99v-4.73h3.29v4.73c0,0.37,0.04,0.63,0.12,0.77c0.08,0.14,0.22,0.22,0.42,0.22
					c0.36,0,0.55-0.33,0.55-0.99v-4.73H70v5.41c0,0.99-0.33,1.82-0.99,2.51c-0.66,0.69-1.47,1.03-2.41,1.03
					c-0.97,0-1.85-0.41-2.62-1.23c-0.86,0.82-1.72,1.23-2.59,1.23c-1.1,0-1.98-0.4-2.64-1.2c-0.52-0.63-0.78-1.54-0.78-2.72V63.37z"
					/>
			</g>
		</g>
	</g>
</g>
<g id="Capa_2">
	<g>
		<path class="st4" d="M24.11,11.81c-6.05,4.11-11.07,9.62-14.6,16.07"/>
		<g>
			<path class="st4" d="M50,3.86c-9.6,0-18.51,2.93-25.89,7.95"/>
			<path class="st4" d="M77.47,12.93c-3.12-2.31-6.54-4.24-10.19-5.71"/>
			<path class="st4" d="M81.31,83.88C90.43,75.46,96.14,63.4,96.14,50"/>
			<path class="st4" d="M3.86,50c0,8.51,2.31,16.47,6.33,23.32"/>
			<path class="st4" d="M33.53,93.09C33.53,93.1,33.53,93.1,33.53,93.09c5.12,1.96,10.67,3.05,16.47,3.05"/>
			<path class="st4" d="M10.19,73.32c5.27,8.98,13.49,16.02,23.34,19.78c0,0,0,0,0-0.01"/>
		</g>
	</g>
</g>
<g id="Capa_3" class="st5">
	<g class="st6">
		<path class="st7" d="M59.96,15.96c-5.4-1.57-11.12-1.85-16.67-0.79"/>
		<g>
			<path class="st7" d="M77.34,27.42c-4.7-5.69-10.8-9.53-17.38-11.45"/>
			<path class="st7" d="M85.41,48.13c-0.15-2.98-0.69-5.95-1.6-8.84"/>
			<path class="st7" d="M45.25,85.14c9.46,1.28,19.4-1.24,27.34-7.8"/>
			<path class="st7" d="M27.42,22.66c-5.04,4.17-8.63,9.43-10.72,15.16"/>
			<path class="st7" d="M16.4,61.33C16.4,61.33,16.4,61.33,16.4,61.33c1.34,3.99,3.42,7.81,6.26,11.25"/>
			<path class="st7" d="M16.7,37.82c-2.74,7.52-2.89,15.83-0.3,23.51c0,0,0,0,0,0"/>
		</g>
	</g>
</g>
</svg>
