<?xml version="1.0" encoding="utf-8"?>
<!-- Generator: Adobe Illustrator 25.2.3, SVG Export Plug-In . SVG Version: 6.00 Build 0)  -->
<svg version="1.1" xmlns="http://www.w3.org/2000/svg" xmlns:xlink="http://www.w3.org/1999/xlink" x="0px" y="0px"
	 viewBox="0 0 100 100" style="enable-background:new 0 0 100 100;" xml:space="preserve">
<style type="text/css">
	.st0{fill:#F39200;}
	.st1{fill:#1D1D1B;}
	.st2{fill:#FFFFFF;}
	.st3{fill:none;stroke:#F39200;stroke-width:3;stroke-miterlimit:10;}
	.st4{fill:none;stroke:#F39200;stroke-width:3;stroke-linecap:round;stroke-linejoin:round;stroke-miterlimit:10;}
	.st5{display:none;}
	.st6{display:inline;}
	.st7{fill:none;stroke:#FFFFFF;stroke-width:2;stroke-linecap:round;stroke-linejoin:round;stroke-miterlimit:10;}
</style>
<g id="Capa_1">
	<g>
		<circle class="st0" cx="50" cy="50" r="40.21"/>
		<g>
			<path class="st1" d="M68.24,68.52H31.76c-2.75,0-4.87-2.44-4.47-5.17l3.92-26.99c0.32-2.22,2.23-3.87,4.47-3.87h28.64
				c2.24,0,4.15,1.65,4.47,3.87l3.92,26.99C73.11,66.07,71,68.52,68.24,68.52z"/>
			<path class="st2" d="M60.25,39.15v-9.91c0-3.15-2.57-5.72-5.72-5.72h-9.06c-3.15,0-5.72,2.56-5.72,5.72v9.9
				c-0.97,0.48-1.64,1.48-1.64,2.64c0,1.63,1.32,2.95,2.95,2.95s2.95-1.32,2.95-2.95c0-1.16-0.67-2.16-1.64-2.64v-9.9
				c0-1.71,1.39-3.1,3.1-3.1h9.06c1.71,0,3.1,1.39,3.1,3.1v9.9c-0.97,0.48-1.64,1.48-1.64,2.64c0,1.63,1.32,2.95,2.95,2.95
				s2.95-1.32,2.95-2.95C61.89,40.64,61.22,39.64,60.25,39.15z"/>
		</g>
		<g>
			<path class="st2" d="M53.46,51.25h-3.04v-0.5c0-0.54-0.04-0.89-0.11-1.05c-0.07-0.17-0.22-0.25-0.45-0.25
				c-0.19,0-0.33,0.07-0.42,0.21c-0.09,0.14-0.14,0.36-0.14,0.64c0,0.48,0.1,0.81,0.29,1c0.19,0.19,0.73,0.56,1.64,1.11
				c0.77,0.47,1.3,0.82,1.58,1.07c0.28,0.25,0.52,0.6,0.71,1.05c0.19,0.45,0.29,1.02,0.29,1.7c0,1.08-0.26,1.94-0.78,2.55
				s-1.31,1-2.35,1.14v1.14h-1.4v-1.18c-0.81-0.08-1.52-0.39-2.13-0.94s-0.91-1.5-0.91-2.85v-0.6h3.04v0.75
				c0,0.82,0.03,1.33,0.09,1.53c0.06,0.2,0.21,0.3,0.46,0.3c0.21,0,0.36-0.07,0.46-0.21s0.15-0.34,0.15-0.61
				c0-0.68-0.05-1.17-0.14-1.47c-0.1-0.29-0.42-0.61-0.98-0.96c-0.93-0.58-1.56-1.01-1.89-1.28c-0.33-0.27-0.62-0.66-0.87-1.16
				c-0.24-0.5-0.37-1.06-0.37-1.69c0-0.91,0.26-1.62,0.77-2.14c0.51-0.52,1.29-0.84,2.32-0.96v-0.97h1.4v0.97
				c0.94,0.12,1.64,0.44,2.11,0.95c0.47,0.51,0.7,1.21,0.7,2.11C53.49,50.81,53.48,51,53.46,51.25z"/>
		</g>
	</g>
</g>
<g id="Capa_2">
	<g>
		<path class="st4" d="M24.11,11.81c-6.05,4.11-11.07,9.62-14.6,16.07"/>
		<g>
			<path class="st4" d="M50,3.86c-9.6,0-18.51,2.93-25.89,7.95"/>
			<path class="st4" d="M77.47,12.93c-3.12-2.31-6.54-4.24-10.19-5.71"/>
			<path class="st4" d="M81.31,83.88C90.43,75.46,96.14,63.4,96.14,50"/>
			<path class="st4" d="M3.86,50c0,8.51,2.31,16.47,6.33,23.32"/>
			<path class="st4" d="M33.53,93.09C33.53,93.1,33.53,93.1,33.53,93.09c5.12,1.96,10.67,3.05,16.47,3.05"/>
			<path class="st4" d="M10.19,73.32c5.27,8.98,13.49,16.02,23.34,19.78c0,0,0,0,0-0.01"/>
		</g>
	</g>
</g>
<g id="Capa_3" class="st5">
	<g class="st6">
		<path class="st7" d="M59.96,15.96c-5.4-1.57-11.12-1.85-16.67-0.79"/>
		<g>
			<path class="st7" d="M77.34,27.42c-4.7-5.69-10.8-9.53-17.38-11.45"/>
			<path class="st7" d="M85.41,48.13c-0.15-2.98-0.69-5.95-1.6-8.84"/>
			<path class="st7" d="M45.25,85.14c9.46,1.28,19.4-1.24,27.34-7.8"/>
			<path class="st7" d="M27.42,22.66c-5.04,4.17-8.63,9.43-10.72,15.16"/>
			<path class="st7" d="M16.4,61.33C16.4,61.33,16.4,61.33,16.4,61.33c1.34,3.99,3.42,7.81,6.26,11.25"/>
			<path class="st7" d="M16.7,37.82c-2.74,7.52-2.89,15.83-0.3,23.51c0,0,0,0,0,0"/>
		</g>
	</g>
</g>
</svg>
